<svg width="705" height="711" viewBox="0 0 705 711" fill="none" xmlns="http://www.w3.org/2000/svg">
<path d="M99 542.541C89 532.541 74 532.541 64 542.541C51.5 555.041 6.5 600.041 6.5 635.041C6.5 677.541 39 710.041 81.5 710.041C124 710.041 156.5 677.541 156.5 635.041C156.5 600.041 111.5 555.041 99 542.541Z" fill="url(#paint0_linear_7_7)"/>
<path d="M676.5 342.541L601.5 257.541C564 307.541 521.5 355.041 484 390.041L481.5 392.541C476.5 430.041 446.5 457.541 406.5 457.541C364 457.541 331.5 425.041 331.5 382.541C331.5 340.041 364 307.541 406.5 307.541C416.5 307.541 429 310.041 436.5 315.041C431.5 320.041 426.5 325.041 421.5 330.041C411.5 340.041 411.5 355.041 421.5 365.041C426.5 370.041 431.5 372.541 439 372.541C446.5 372.541 451.5 370.041 456.5 365.041C556.5 265.041 709 77.5413 646.5 15.0413C604 -27.4587 509 27.5413 434 87.5413C399 75.0413 359 82.5413 331.5 110.041L231.5 210.041C179 262.541 119 305.041 49 335.041C24 345.041 6.5 367.541 1.5 395.041C-3.5 422.541 4 450.041 24 467.541C39 482.541 59 492.541 81.5 492.541C101.5 492.541 119 485.041 134 472.541L246.5 360.041C256.5 350.041 271.5 350.041 281.5 360.041C291.5 370.041 291.5 385.041 281.5 395.041L184 492.541L361.5 650.041C384 670.041 411.5 680.041 439 680.041C469 680.041 499 667.541 524 645.041L664 505.041C714 460.041 716.5 390.041 676.5 342.541ZM614 52.5413C621.5 65.0413 599 120.041 544 195.041L479 122.541C569 55.0413 609 50.0413 614 52.5413Z" fill="url(#paint1_linear_7_7)"/>
<defs>
<linearGradient id="paint0_linear_7_7" x1="81.5" y1="535.041" x2="81.5" y2="710.041" gradientUnits="userSpaceOnUse">
<stop stop-color="#03045E"/>
<stop offset="1" stop-color="#0077B6"/>
</linearGradient>
<linearGradient id="paint1_linear_7_7" x1="352.117" y1="0" x2="352.117" y2="680.041" gradientUnits="userSpaceOnUse">
<stop stop-color="#03045E"/>
<stop offset="1" stop-color="#0077B6"/>
</linearGradient>
</defs>
</svg>
