<svg width="2381" height="801" viewBox="0 0 2381 801" fill="none" xmlns="http://www.w3.org/2000/svg">
<path d="M935.859 535.041H871.347L932.275 250.113L998.579 241.153L977.523 340.609H980.211C996.936 340.609 1011.87 332.993 1025.01 317.761C1038.15 302.529 1044.72 285.953 1044.72 268.033C1044.72 253.1 1039.5 241.303 1029.04 232.641C1018.89 223.98 1004.4 219.649 985.587 219.649C954.227 219.649 927.646 229.655 905.843 249.665C884.339 269.676 873.587 295.959 873.587 328.513C873.587 334.188 873.886 339.116 874.483 343.297C875.379 347.479 876.723 351.511 878.515 355.393C879.112 356.588 879.411 357.484 879.411 358.081C879.71 358.38 879.859 358.679 879.859 358.977C863.731 358.977 851.635 355.543 843.571 348.673C835.806 341.804 831.923 331.5 831.923 317.761C831.923 301.633 837 285.804 847.155 270.273C857.608 254.743 871.944 241.153 890.163 229.505C905.096 219.649 921.523 212.183 939.443 207.105C957.662 201.729 976.03 199.041 994.547 199.041C1023.82 199.041 1046.96 205.612 1063.99 218.753C1081.31 231.895 1089.97 249.068 1089.97 270.273C1089.97 284.311 1085.94 297.751 1077.87 310.593C1069.81 323.436 1058.91 333.74 1045.17 341.505C1062.19 344.791 1075.19 352.855 1084.15 365.697C1093.41 378.241 1098.03 394.22 1098.03 413.633C1098.03 427.671 1095.94 442.455 1091.76 457.985C1087.58 473.516 1081.76 487.255 1074.29 499.201C1065.33 513.537 1054.58 524.439 1042.03 531.905C1029.49 539.073 1015.45 542.657 999.923 542.657C985.886 542.657 974.984 539.82 967.219 534.145C959.454 528.471 955.571 520.257 955.571 509.505C955.571 505.921 956.019 502.039 956.915 497.857C957.811 493.377 959.304 488.599 961.395 483.521C967.07 489.196 972.147 493.377 976.627 496.065C981.406 498.455 986.334 499.649 991.411 499.649C1004.85 499.649 1015.6 491.884 1023.67 476.353C1031.73 460.823 1035.76 441.708 1035.76 419.009C1035.76 400.193 1032.18 386.007 1025.01 376.449C1017.84 366.892 1007.24 362.113 993.203 362.113C991.112 362.113 987.976 362.263 983.795 362.561C979.912 362.86 976.179 363.159 972.595 363.457L935.859 535.041ZM1161.1 535.041H1096.59L1144.07 311.041H1208.59L1202.76 338.817C1215.9 327.767 1226.21 320.449 1233.67 316.865C1241.44 312.983 1249.2 311.041 1256.97 311.041C1266.23 311.041 1273.7 314.327 1279.37 320.897C1285.04 327.169 1287.88 335.084 1287.88 344.641C1287.88 353.9 1284.9 361.665 1278.92 367.937C1272.95 374.209 1265.18 377.345 1255.63 377.345C1250.55 377.345 1246.52 376.151 1243.53 373.761C1240.84 371.372 1238.9 366.444 1237.71 358.977C1236.81 354.199 1235.76 351.212 1234.57 350.017C1233.38 348.524 1231.73 347.777 1229.64 347.777C1224.56 347.777 1219.79 348.823 1215.31 350.913C1210.83 353.004 1204.7 357.633 1196.94 364.801L1161.1 535.041ZM1356.86 494.273C1364.63 494.273 1371.5 490.988 1377.47 484.417C1383.74 477.548 1388.82 467.692 1392.7 454.849L1423.17 311.041H1487.68L1455.42 463.361C1454.83 466.049 1454.38 468.588 1454.08 470.977C1453.78 473.068 1453.63 475.308 1453.63 477.697C1453.63 483.671 1454.98 488.001 1457.66 490.689C1460.65 493.079 1465.43 494.273 1472 494.273C1479.76 494.273 1486.78 490.839 1493.06 483.969C1499.33 477.1 1504.4 467.393 1508.29 454.849H1527.1C1517.55 482.327 1505.15 503.084 1489.92 517.121C1474.69 530.86 1457.07 537.729 1437.06 537.729C1424.21 537.729 1413.91 534.145 1406.14 526.977C1398.38 519.511 1393.9 508.908 1392.7 495.169C1384.04 509.505 1374.19 520.257 1363.14 527.425C1352.38 534.295 1340.14 537.729 1326.4 537.729C1311.47 537.729 1299.67 533.1 1291.01 523.841C1282.64 514.284 1278.46 500.993 1278.46 483.969C1278.46 480.087 1278.76 475.756 1279.36 470.977C1279.96 465.9 1280.85 460.524 1282.05 454.849L1312.51 311.041H1377.02L1344.77 463.361C1344.17 465.751 1343.72 467.991 1343.42 470.081C1343.42 471.873 1343.42 473.815 1343.42 475.905C1343.42 481.879 1344.47 486.508 1346.56 489.793C1348.95 492.78 1352.38 494.273 1356.86 494.273ZM1644.97 460.225C1644.97 463.809 1644.82 466.945 1644.52 469.633C1644.22 472.321 1643.77 474.86 1643.18 477.249C1649.15 473.665 1654.97 469.932 1660.65 466.049C1666.32 462.167 1671.25 458.433 1675.43 454.849H1694.25C1684.99 465.601 1674.69 475.607 1663.34 484.865C1652.29 493.825 1639.74 502.487 1625.71 510.849C1617.64 519.511 1607.34 526.231 1594.79 531.009C1582.25 535.489 1569.11 537.729 1555.37 537.729C1535.36 537.729 1519.38 532.353 1507.43 521.601C1495.79 510.551 1489.96 496.812 1489.96 480.385C1489.96 471.127 1492.2 462.764 1496.68 455.297C1501.16 447.532 1506.84 442.007 1513.71 438.721C1523.86 420.503 1533.27 401.089 1541.93 380.481C1550.89 359.575 1559.85 334.785 1568.81 306.113L1635.11 297.153C1636.01 319.553 1637.05 340.012 1638.25 358.529C1639.44 377.047 1640.94 397.207 1642.73 419.009C1643.63 431.553 1644.22 440.364 1644.52 445.441C1644.82 450.519 1644.97 455.447 1644.97 460.225ZM1571.5 354.497C1567.61 366.743 1562.84 379.585 1557.16 393.025C1551.79 406.167 1544.47 421.548 1535.21 439.169C1538.49 440.663 1541.03 442.753 1542.83 445.441C1544.62 448.129 1545.51 451.265 1545.51 454.849C1545.51 460.524 1543.57 465.601 1539.69 470.081C1535.81 474.561 1531.18 476.801 1525.8 476.801C1522.81 476.801 1520.28 476.353 1518.19 475.457C1516.09 474.263 1514.6 472.769 1513.71 470.977C1513.71 482.028 1515.8 490.092 1519.98 495.169C1524.46 499.948 1531.48 502.337 1541.03 502.337C1553.28 502.337 1562.84 498.753 1569.71 491.585C1576.57 484.417 1580.01 474.113 1580.01 460.673C1580.01 456.492 1579.86 452.311 1579.56 448.129C1579.26 443.649 1578.67 436.332 1577.77 426.177C1576.28 412.14 1575.08 399.745 1574.19 388.993C1573.29 378.241 1572.39 366.743 1571.5 354.497ZM1788.16 487.105C1788.16 481.729 1788.76 475.009 1789.95 466.945C1791.45 458.881 1794.28 446.039 1798.47 428.417C1802.65 411.393 1805.33 399.148 1806.53 391.681C1807.72 384.215 1808.32 377.943 1808.32 372.865C1808.32 365.399 1806.83 359.724 1803.84 355.841C1801.15 351.959 1797.12 350.017 1791.75 350.017C1784.58 350.017 1777.56 354.348 1770.69 363.009C1764.12 371.372 1759.79 380.183 1757.7 389.441L1726.79 535.041H1662.27L1727.23 230.401L1793.54 221.441L1769.35 334.337C1776.81 325.975 1784.88 319.703 1793.54 315.521C1802.2 311.34 1811.61 309.249 1821.76 309.249C1837.59 309.249 1849.84 313.58 1858.5 322.241C1867.16 330.903 1871.49 343.447 1871.49 359.873C1871.49 366.743 1870.59 374.956 1868.8 384.513C1867.31 393.772 1864.17 408.108 1859.39 427.521C1855.51 442.753 1852.97 453.505 1851.78 459.777C1850.58 466.049 1849.99 471.276 1849.99 475.457C1849.99 481.729 1851.48 486.508 1854.47 489.793C1857.45 492.78 1861.93 494.273 1867.91 494.273C1875.37 494.273 1881.79 491.735 1887.17 486.657C1892.55 481.58 1898.67 470.977 1905.54 454.849H1924.35C1914.8 482.625 1903.15 503.383 1889.41 517.121C1875.97 530.86 1859.84 537.729 1841.03 537.729C1824.3 537.729 1811.31 533.249 1802.05 524.289C1792.79 515.031 1788.16 502.636 1788.16 487.105ZM2016.14 251.457C2016.14 261.313 2012.56 269.676 2005.39 276.545C1998.52 283.415 1990.16 286.849 1980.3 286.849C1970.44 286.849 1962.08 283.415 1955.21 276.545C1948.34 269.676 1944.91 261.313 1944.91 251.457C1944.91 241.601 1948.34 233.239 1955.21 226.369C1962.08 219.201 1970.44 215.617 1980.3 215.617C1990.16 215.617 1998.52 219.201 2005.39 226.369C2012.56 233.239 2016.14 241.601 2016.14 251.457ZM1901.9 483.969C1901.9 480.087 1902.2 475.756 1902.8 470.977C1903.39 465.9 1904.29 460.524 1905.48 454.849L1935.95 311.041H2000.46L1968.2 463.361C1967.61 466.049 1967.16 468.588 1966.86 470.977C1966.56 473.068 1966.41 475.308 1966.41 477.697C1966.41 483.671 1967.76 488.001 1970.44 490.689C1973.43 493.079 1978.21 494.273 1984.78 494.273C1993.14 494.273 2001.06 490.689 2008.52 483.521C2015.99 476.055 2021.52 466.497 2025.1 454.849H2043.92C2034.36 482.028 2021.52 502.636 2005.39 516.673C1989.26 530.711 1970.74 537.729 1949.84 537.729C1934.9 537.729 1923.11 533.1 1914.44 523.841C1906.08 514.284 1901.9 500.993 1901.9 483.969ZM2144.54 199.489C2159.17 199.489 2171.57 204.119 2181.72 213.377C2192.18 222.636 2197.4 234.135 2197.4 247.873C2197.4 251.457 2197.25 254.743 2196.95 257.729C2196.95 260.716 2196.66 263.553 2196.06 266.241H2175C2175.6 261.463 2175.9 258.625 2175.9 257.729C2175.9 256.535 2175.9 255.34 2175.9 254.145C2175.9 249.367 2174.26 245.633 2170.97 242.945C2167.98 240.257 2163.95 238.913 2158.87 238.913C2151.41 238.913 2144.84 242.049 2139.16 248.321C2133.79 254.593 2129.9 263.703 2127.51 275.649L2119.9 311.041H2152.6L2149.47 328.961H2116.31L2064.79 570.881C2059.42 596.268 2050.01 615.233 2036.57 627.777C2023.13 640.62 2005.81 647.041 1984.6 647.041C1969.97 647.041 1957.57 642.412 1947.42 633.153C1936.97 623.895 1931.74 612.396 1931.74 598.657C1931.74 583.127 1936.97 570.433 1947.42 560.577C1957.57 550.721 1978.03 541.015 2008.79 531.457L2063 275.649C2068.38 250.561 2077.94 231.596 2091.67 218.753C2105.41 205.911 2123.03 199.489 2144.54 199.489ZM2005.66 546.241C1988.34 551.916 1975.79 558.487 1968.03 565.953C1960.26 573.42 1956.38 582.231 1956.38 592.385C1956.38 595.969 1958.32 599.255 1962.2 602.241C1965.79 605.527 1969.82 607.169 1974.3 607.169C1979.97 607.169 1985.05 604.183 1989.53 598.209C1994.01 592.236 1997.45 583.575 1999.83 572.225L2005.66 546.241ZM2219.18 494.273C2226.64 494.273 2233.36 491.137 2239.34 484.865C2245.31 478.593 2250.24 469.484 2254.12 457.537L2285.48 311.041H2349.99L2305.64 518.913C2320.57 513.537 2332.22 506.071 2340.58 496.513C2349.25 486.657 2356.41 472.769 2362.09 454.849H2380.9C2374.03 477.548 2364.18 495.767 2351.34 509.505C2338.79 523.244 2322.22 532.951 2301.61 538.625L2294.89 570.881C2289.51 595.969 2280.1 614.935 2266.66 627.777C2253.22 640.62 2235.75 647.041 2214.25 647.041C2199.02 647.041 2186.77 643.159 2177.51 635.393C2168.55 627.628 2164.07 617.025 2164.07 603.585C2164.07 588.951 2170.05 575.959 2181.99 564.609C2194.24 553.559 2212.61 544.3 2237.1 536.833L2242.47 512.641C2235.01 521.004 2226.79 527.276 2217.83 531.457C2209.17 535.639 2199.46 537.729 2188.71 537.729C2173.78 537.729 2161.98 533.1 2153.32 523.841C2144.96 514.284 2140.78 500.993 2140.78 483.969C2140.78 480.087 2141.07 475.756 2141.67 470.977C2142.27 465.9 2143.17 460.524 2144.36 454.849L2174.82 311.041H2239.34L2207.08 463.361C2206.78 465.153 2206.48 467.095 2206.18 469.185C2205.89 470.977 2205.74 472.769 2205.74 474.561C2205.74 480.833 2206.78 485.761 2208.87 489.345C2211.26 492.631 2214.7 494.273 2219.18 494.273ZM2232.62 559.233C2217.68 564.908 2206.63 570.732 2199.46 576.705C2192.3 582.977 2188.71 589.847 2188.71 597.313C2188.71 601.196 2190.21 604.631 2193.19 607.617C2196.18 610.604 2199.76 612.097 2203.94 612.097C2209.02 612.097 2213.95 608.513 2218.73 601.345C2223.51 594.177 2227.24 584.471 2229.93 572.225L2232.62 559.233Z" fill="#0077B6"/>
<path d="M99 542.583C89 532.583 74 532.583 64 542.583C51.5 555.083 6.5 600.083 6.5 635.083C6.5 677.583 39 710.083 81.5 710.083C124 710.083 156.5 677.583 156.5 635.083C156.5 600.083 111.5 555.083 99 542.583Z" fill="url(#paint0_linear_8_58)"/>
<path d="M676.5 342.583L601.5 257.583C564 307.583 521.5 355.083 484 390.083L481.5 392.583C476.5 430.083 446.5 457.583 406.5 457.583C364 457.583 331.5 425.083 331.5 382.583C331.5 340.083 364 307.583 406.5 307.583C416.5 307.583 429 310.083 436.5 315.083C431.5 320.083 426.5 325.083 421.5 330.083C411.5 340.083 411.5 355.083 421.5 365.083C426.5 370.083 431.5 372.583 439 372.583C446.5 372.583 451.5 370.083 456.5 365.083C556.5 265.083 709 77.5825 646.5 15.0825C604 -27.4175 509 27.5825 434 87.5825C399 75.0825 359 82.5825 331.5 110.083L231.5 210.083C179 262.583 119 305.083 49 335.083C24 345.083 6.5 367.583 1.5 395.083C-3.5 422.583 4 450.083 24 467.583C39 482.583 59 492.583 81.5 492.583C101.5 492.583 119 485.083 134 472.583L246.5 360.083C256.5 350.083 271.5 350.083 281.5 360.083C291.5 370.083 291.5 385.083 281.5 395.083L184 492.583L361.5 650.083C384 670.083 411.5 680.083 439 680.083C469 680.083 499 667.583 524 645.083L664 505.083C714 460.083 716.5 390.083 676.5 342.583ZM614 52.5825C621.5 65.0825 599 120.083 544 195.083L479 122.583C569 55.0825 609 50.0825 614 52.5825Z" fill="url(#paint1_linear_8_58)"/>
<defs>
<linearGradient id="paint0_linear_8_58" x1="81.5" y1="535.083" x2="81.5" y2="710.083" gradientUnits="userSpaceOnUse">
<stop stop-color="#03045E"/>
<stop offset="1" stop-color="#0077B6"/>
</linearGradient>
<linearGradient id="paint1_linear_8_58" x1="352.117" y1="0.0412598" x2="352.117" y2="680.083" gradientUnits="userSpaceOnUse">
<stop stop-color="#03045E"/>
<stop offset="1" stop-color="#0077B6"/>
</linearGradient>
</defs>
</svg>
