<svg width="2451" height="800" viewBox="0 0 2451 800" fill="none" xmlns="http://www.w3.org/2000/svg">
<path d="M1005.86 535H941.347L1002.27 250.072L1068.58 241.112L1047.52 340.568H1050.21C1066.94 340.568 1081.87 332.952 1095.01 317.72C1108.15 302.488 1114.72 285.912 1114.72 267.992C1114.72 253.059 1109.5 241.261 1099.04 232.6C1088.89 223.939 1074.4 219.608 1055.59 219.608C1024.23 219.608 997.646 229.613 975.843 249.624C954.339 269.635 943.587 295.917 943.587 328.472C943.587 334.147 943.886 339.075 944.483 343.256C945.379 347.437 946.723 351.469 948.515 355.352C949.112 356.547 949.411 357.443 949.411 358.04C949.71 358.339 949.859 358.637 949.859 358.936C933.731 358.936 921.635 355.501 913.571 348.632C905.806 341.763 901.923 331.459 901.923 317.72C901.923 301.592 907 285.763 917.155 270.232C927.608 254.701 941.944 241.112 960.163 229.464C975.096 219.608 991.523 212.141 1009.44 207.064C1027.66 201.688 1046.03 199 1064.55 199C1093.82 199 1116.96 205.571 1133.99 218.712C1151.31 231.853 1159.97 249.027 1159.97 270.232C1159.97 284.269 1155.94 297.709 1147.87 310.552C1139.81 323.395 1128.91 333.699 1115.17 341.464C1132.19 344.749 1145.19 352.813 1154.15 365.656C1163.41 378.2 1168.03 394.179 1168.03 413.592C1168.03 427.629 1165.94 442.413 1161.76 457.944C1157.58 473.475 1151.76 487.213 1144.29 499.16C1135.33 513.496 1124.58 524.397 1112.03 531.864C1099.49 539.032 1085.45 542.616 1069.92 542.616C1055.89 542.616 1044.98 539.779 1037.22 534.104C1029.45 528.429 1025.57 520.216 1025.57 509.464C1025.57 505.88 1026.02 501.997 1026.91 497.816C1027.81 493.336 1029.3 488.557 1031.39 483.48C1037.07 489.155 1042.15 493.336 1046.63 496.024C1051.41 498.413 1056.33 499.608 1061.41 499.608C1074.85 499.608 1085.6 491.843 1093.67 476.312C1101.73 460.781 1105.76 441.667 1105.76 418.968C1105.76 400.152 1102.18 385.965 1095.01 376.408C1087.84 366.851 1077.24 362.072 1063.2 362.072C1061.11 362.072 1057.98 362.221 1053.79 362.52C1049.91 362.819 1046.18 363.117 1042.59 363.416L1005.86 535ZM1231.1 535H1166.59L1214.07 311H1278.59L1272.76 338.776C1285.9 327.725 1296.21 320.408 1303.67 316.824C1311.44 312.941 1319.2 311 1326.97 311C1336.23 311 1343.7 314.285 1349.37 320.856C1355.04 327.128 1357.88 335.043 1357.88 344.6C1357.88 353.859 1354.9 361.624 1348.92 367.896C1342.95 374.168 1335.18 377.304 1325.63 377.304C1320.55 377.304 1316.52 376.109 1313.53 373.72C1310.84 371.331 1308.9 366.403 1307.71 358.936C1306.81 354.157 1305.76 351.171 1304.57 349.976C1303.38 348.483 1301.73 347.736 1299.64 347.736C1294.56 347.736 1289.79 348.781 1285.31 350.872C1280.83 352.963 1274.7 357.592 1266.94 364.76L1231.1 535ZM1426.86 494.232C1434.63 494.232 1441.5 490.947 1447.47 484.376C1453.74 477.507 1458.82 467.651 1462.7 454.808L1493.17 311H1557.68L1525.42 463.32C1524.83 466.008 1524.38 468.547 1524.08 470.936C1523.78 473.027 1523.63 475.267 1523.63 477.656C1523.63 483.629 1524.98 487.96 1527.66 490.648C1530.65 493.037 1535.43 494.232 1542 494.232C1549.76 494.232 1556.78 490.797 1563.06 483.928C1569.33 477.059 1574.4 467.352 1578.29 454.808H1597.1C1587.55 482.285 1575.15 503.043 1559.92 517.08C1544.69 530.819 1527.07 537.688 1507.06 537.688C1494.21 537.688 1483.91 534.104 1476.14 526.936C1468.38 519.469 1463.9 508.867 1462.7 495.128C1454.04 509.464 1444.19 520.216 1433.14 527.384C1422.38 534.253 1410.14 537.688 1396.4 537.688C1381.47 537.688 1369.67 533.059 1361.01 523.8C1352.64 514.243 1348.46 500.952 1348.46 483.928C1348.46 480.045 1348.76 475.715 1349.36 470.936C1349.96 465.859 1350.85 460.483 1352.05 454.808L1382.51 311H1447.02L1414.77 463.32C1414.17 465.709 1413.72 467.949 1413.42 470.04C1413.42 471.832 1413.42 473.773 1413.42 475.864C1413.42 481.837 1414.47 486.467 1416.56 489.752C1418.95 492.739 1422.38 494.232 1426.86 494.232ZM1714.97 460.184C1714.97 463.768 1714.82 466.904 1714.52 469.592C1714.22 472.28 1713.77 474.819 1713.18 477.208C1719.15 473.624 1724.97 469.891 1730.65 466.008C1736.32 462.125 1741.25 458.392 1745.43 454.808H1764.25C1754.99 465.56 1744.69 475.565 1733.34 484.824C1722.29 493.784 1709.74 502.445 1695.71 510.808C1687.64 519.469 1677.34 526.189 1664.79 530.968C1652.25 535.448 1639.11 537.688 1625.37 537.688C1605.36 537.688 1589.38 532.312 1577.43 521.56C1565.79 510.509 1559.96 496.771 1559.96 480.344C1559.96 471.085 1562.2 462.723 1566.68 455.256C1571.16 447.491 1576.84 441.965 1583.71 438.68C1593.86 420.461 1603.27 401.048 1611.93 380.44C1620.89 359.533 1629.85 334.744 1638.81 306.072L1705.11 297.112C1706.01 319.512 1707.05 339.971 1708.25 358.488C1709.44 377.005 1710.94 397.165 1712.73 418.968C1713.63 431.512 1714.22 440.323 1714.52 445.4C1714.82 450.477 1714.97 455.405 1714.97 460.184ZM1641.5 354.456C1637.61 366.701 1632.84 379.544 1627.16 392.984C1621.79 406.125 1614.47 421.507 1605.21 439.128C1608.49 440.621 1611.03 442.712 1612.83 445.4C1614.62 448.088 1615.51 451.224 1615.51 454.808C1615.51 460.483 1613.57 465.56 1609.69 470.04C1605.81 474.52 1601.18 476.76 1595.8 476.76C1592.81 476.76 1590.28 476.312 1588.19 475.416C1586.09 474.221 1584.6 472.728 1583.71 470.936C1583.71 481.987 1585.8 490.051 1589.98 495.128C1594.46 499.907 1601.48 502.296 1611.03 502.296C1623.28 502.296 1632.84 498.712 1639.71 491.544C1646.57 484.376 1650.01 474.072 1650.01 460.632C1650.01 456.451 1649.86 452.269 1649.56 448.088C1649.26 443.608 1648.67 436.291 1647.77 426.136C1646.28 412.099 1645.08 399.704 1644.19 388.952C1643.29 378.2 1642.39 366.701 1641.5 354.456ZM1858.16 487.064C1858.16 481.688 1858.76 474.968 1859.95 466.904C1861.45 458.84 1864.28 445.997 1868.47 428.376C1872.65 411.352 1875.33 399.107 1876.53 391.64C1877.72 384.173 1878.32 377.901 1878.32 372.824C1878.32 365.357 1876.83 359.683 1873.84 355.8C1871.15 351.917 1867.12 349.976 1861.75 349.976C1854.58 349.976 1847.56 354.307 1840.69 362.968C1834.12 371.331 1829.79 380.141 1827.7 389.4L1796.79 535H1732.27L1797.23 230.36L1863.54 221.4L1839.35 334.296C1846.81 325.933 1854.88 319.661 1863.54 315.48C1872.2 311.299 1881.61 309.208 1891.76 309.208C1907.59 309.208 1919.84 313.539 1928.5 322.2C1937.16 330.861 1941.49 343.405 1941.49 359.832C1941.49 366.701 1940.59 374.915 1938.8 384.472C1937.31 393.731 1934.17 408.067 1929.39 427.48C1925.51 442.712 1922.97 453.464 1921.78 459.736C1920.58 466.008 1919.99 471.235 1919.99 475.416C1919.99 481.688 1921.48 486.467 1924.47 489.752C1927.45 492.739 1931.93 494.232 1937.91 494.232C1945.37 494.232 1951.79 491.693 1957.17 486.616C1962.55 481.539 1968.67 470.936 1975.54 454.808H1994.35C1984.8 482.584 1973.15 503.341 1959.41 517.08C1945.97 530.819 1929.84 537.688 1911.03 537.688C1894.3 537.688 1881.31 533.208 1872.05 524.248C1862.79 514.989 1858.16 502.595 1858.16 487.064ZM2086.14 251.416C2086.14 261.272 2082.56 269.635 2075.39 276.504C2068.52 283.373 2060.16 286.808 2050.3 286.808C2040.44 286.808 2032.08 283.373 2025.21 276.504C2018.34 269.635 2014.91 261.272 2014.91 251.416C2014.91 241.56 2018.34 233.197 2025.21 226.328C2032.08 219.16 2040.44 215.576 2050.3 215.576C2060.16 215.576 2068.52 219.16 2075.39 226.328C2082.56 233.197 2086.14 241.56 2086.14 251.416ZM1971.9 483.928C1971.9 480.045 1972.2 475.715 1972.8 470.936C1973.39 465.859 1974.29 460.483 1975.48 454.808L2005.95 311H2070.46L2038.2 463.32C2037.61 466.008 2037.16 468.547 2036.86 470.936C2036.56 473.027 2036.41 475.267 2036.41 477.656C2036.41 483.629 2037.76 487.96 2040.44 490.648C2043.43 493.037 2048.21 494.232 2054.78 494.232C2063.14 494.232 2071.06 490.648 2078.52 483.48C2085.99 476.013 2091.52 466.456 2095.1 454.808H2113.92C2104.36 481.987 2091.52 502.595 2075.39 516.632C2059.26 530.669 2040.74 537.688 2019.84 537.688C2004.9 537.688 1993.11 533.059 1984.44 523.8C1976.08 514.243 1971.9 500.952 1971.9 483.928ZM2214.54 199.448C2229.17 199.448 2241.57 204.077 2251.72 213.336C2262.18 222.595 2267.4 234.093 2267.4 247.832C2267.4 251.416 2267.25 254.701 2266.95 257.688C2266.95 260.675 2266.66 263.512 2266.06 266.2H2245C2245.6 261.421 2245.9 258.584 2245.9 257.688C2245.9 256.493 2245.9 255.299 2245.9 254.104C2245.9 249.325 2244.26 245.592 2240.97 242.904C2237.98 240.216 2233.95 238.872 2228.87 238.872C2221.41 238.872 2214.84 242.008 2209.16 248.28C2203.79 254.552 2199.9 263.661 2197.51 275.608L2189.9 311H2222.6L2219.47 328.92H2186.31L2134.79 570.84C2129.42 596.227 2120.01 615.192 2106.57 627.736C2093.13 640.579 2075.81 647 2054.6 647C2039.97 647 2027.57 642.371 2017.42 633.112C2006.97 623.853 2001.74 612.355 2001.74 598.616C2001.74 583.085 2006.97 570.392 2017.42 560.536C2027.57 550.68 2048.03 540.973 2078.79 531.416L2133 275.608C2138.38 250.52 2147.94 231.555 2161.67 218.712C2175.41 205.869 2193.03 199.448 2214.54 199.448ZM2075.66 546.2C2058.34 551.875 2045.79 558.445 2038.03 565.912C2030.26 573.379 2026.38 582.189 2026.38 592.344C2026.38 595.928 2028.32 599.213 2032.2 602.2C2035.79 605.485 2039.82 607.128 2044.3 607.128C2049.97 607.128 2055.05 604.141 2059.53 598.168C2064.01 592.195 2067.45 583.533 2069.83 572.184L2075.66 546.2ZM2289.18 494.232C2296.64 494.232 2303.36 491.096 2309.34 484.824C2315.31 478.552 2320.24 469.443 2324.12 457.496L2355.48 311H2419.99L2375.64 518.872C2390.57 513.496 2402.22 506.029 2410.58 496.472C2419.25 486.616 2426.41 472.728 2432.09 454.808H2450.9C2444.03 477.507 2434.18 495.725 2421.34 509.464C2408.79 523.203 2392.22 532.909 2371.61 538.584L2364.89 570.84C2359.51 595.928 2350.1 614.893 2336.66 627.736C2323.22 640.579 2305.75 647 2284.25 647C2269.02 647 2256.77 643.117 2247.51 635.352C2238.55 627.587 2234.07 616.984 2234.07 603.544C2234.07 588.909 2240.05 575.917 2251.99 564.568C2264.24 553.517 2282.61 544.259 2307.1 536.792L2312.47 512.6C2305.01 520.963 2296.79 527.235 2287.83 531.416C2279.17 535.597 2269.46 537.688 2258.71 537.688C2243.78 537.688 2231.98 533.059 2223.32 523.8C2214.96 514.243 2210.78 500.952 2210.78 483.928C2210.78 480.045 2211.07 475.715 2211.67 470.936C2212.27 465.859 2213.17 460.483 2214.36 454.808L2244.82 311H2309.34L2277.08 463.32C2276.78 465.112 2276.48 467.053 2276.18 469.144C2275.89 470.936 2275.74 472.728 2275.74 474.52C2275.74 480.792 2276.78 485.72 2278.87 489.304C2281.26 492.589 2284.7 494.232 2289.18 494.232ZM2302.62 559.192C2287.68 564.867 2276.63 570.691 2269.46 576.664C2262.3 582.936 2258.71 589.805 2258.71 597.272C2258.71 601.155 2260.21 604.589 2263.19 607.576C2266.18 610.563 2269.76 612.056 2273.94 612.056C2279.02 612.056 2283.95 608.472 2288.73 601.304C2293.51 594.136 2297.24 584.429 2299.93 572.184L2302.62 559.192Z" fill="#ECF7FB"/>
<path d="M99 542.541C89 532.541 74 532.541 64 542.541C51.5 555.041 6.5 600.041 6.5 635.041C6.5 677.541 39 710.041 81.5 710.041C124 710.041 156.5 677.541 156.5 635.041C156.5 600.041 111.5 555.041 99 542.541Z" fill="url(#paint0_linear_16_2)"/>
<path d="M676.5 342.541L601.5 257.541C564 307.541 521.5 355.041 484 390.041L481.5 392.541C476.5 430.041 446.5 457.541 406.5 457.541C364 457.541 331.5 425.041 331.5 382.541C331.5 340.041 364 307.541 406.5 307.541C416.5 307.541 429 310.041 436.5 315.041C431.5 320.041 426.5 325.041 421.5 330.041C411.5 340.041 411.5 355.041 421.5 365.041C426.5 370.041 431.5 372.541 439 372.541C446.5 372.541 451.5 370.041 456.5 365.041C556.5 265.041 709 77.5413 646.5 15.0413C604 -27.4587 509 27.5413 434 87.5413C399 75.0413 359 82.5413 331.5 110.041L231.5 210.041C179 262.541 119 305.041 49 335.041C24 345.041 6.5 367.541 1.5 395.041C-3.5 422.541 4 450.041 24 467.541C39 482.541 59 492.541 81.5 492.541C101.5 492.541 119 485.041 134 472.541L246.5 360.041C256.5 350.041 271.5 350.041 281.5 360.041C291.5 370.041 291.5 385.041 281.5 395.041L184 492.541L361.5 650.041C384 670.041 411.5 680.041 439 680.041C469 680.041 499 667.541 524 645.041L664 505.041C714 460.041 716.5 390.041 676.5 342.541ZM614 52.5413C621.5 65.0413 599 120.041 544 195.041L479 122.541C569 55.0413 609 50.0413 614 52.5413Z" fill="url(#paint1_linear_16_2)"/>
<defs>
<linearGradient id="paint0_linear_16_2" x1="140.582" y1="537.013" x2="-8.13723" y2="687.533" gradientUnits="userSpaceOnUse">
<stop stop-color="#00A7FF"/>
<stop offset="1" stop-color="#BCEFFF"/>
</linearGradient>
<linearGradient id="paint1_linear_16_2" x1="629.5" y1="7.66199" x2="63.0421" y2="700.33" gradientUnits="userSpaceOnUse">
<stop stop-color="#00A7FF"/>
<stop offset="1" stop-color="#BCEFFF"/>
</linearGradient>
</defs>
</svg>
